<?xml version="1.0" encoding="UTF-8"?>
<!DOCTYPE svg PUBLIC "-//W3C//DTD SVG 1.1//EN" "http://www.w3.org/Graphics/SVG/1.1/DTD/svg11.dtd">
<svg xmlns="http://www.w3.org/2000/svg" version="1.1" width="512px" height="512px" style="shape-rendering:geometricPrecision; text-rendering:geometricPrecision; image-rendering:optimizeQuality; fill-rule:evenodd; clip-rule:evenodd" xmlns:xlink="http://www.w3.org/1999/xlink">
<g><path style="opacity:0.968" fill="#8c5cf7" d="M 201.5,60.5 C 201.5,65.8333 201.5,71.1667 201.5,76.5C 200.5,76.5 199.5,76.5 198.5,76.5C 197.563,90.5146 196.396,104.515 195,118.5C 194.167,121.333 192.333,123.167 189.5,124C 185.141,124.534 180.808,124.368 176.5,123.5C 176.5,117.833 176.5,112.167 176.5,106.5C 177.5,106.5 178.5,106.5 179.5,106.5C 179.951,93.4144 181.118,80.4144 183,67.5C 184.5,64.6667 186.667,62.5 189.5,61C 193.486,60.5012 197.486,60.3345 201.5,60.5 Z"/></g>
<g><path style="opacity:0.969" fill="#8662f4" d="M 201.5,60.5 C 206.179,60.3342 210.845,60.5008 215.5,61C 219.49,62.9904 221.99,66.1571 223,70.5C 224.216,82.4776 225.05,94.4776 225.5,106.5C 228.5,106.5 231.5,106.5 234.5,106.5C 236.379,111.87 237.045,117.537 236.5,123.5C 229.487,123.835 222.487,124.002 215.5,124C 213.714,123.215 212.214,122.049 211,120.5C 208.815,105.944 207.315,91.2773 206.5,76.5C 204.833,76.5 203.167,76.5 201.5,76.5C 201.5,71.1667 201.5,65.8333 201.5,60.5 Z"/></g>
<g><path style="opacity:0.976" fill="#9357f8" d="M 176.5,106.5 C 176.5,112.167 176.5,117.833 176.5,123.5C 163.413,123.478 150.413,124.478 137.5,126.5C 137.214,120.741 137.548,115.075 138.5,109.5C 151.019,107.29 163.686,106.29 176.5,106.5 Z"/></g>
<g><path style="opacity:0.962" fill="#7a6bf1" d="M 234.5,106.5 C 249.679,106.681 264.679,108.348 279.5,111.5C 279.822,117.358 279.489,123.025 278.5,128.5C 264.644,125.711 250.644,124.045 236.5,123.5C 237.045,117.537 236.379,111.87 234.5,106.5 Z"/></g>
<g><path style="opacity:0.963" fill="#7372ef" d="M 279.5,111.5 C 286.956,113.43 294.29,115.763 301.5,118.5C 300.524,129.085 300.191,139.752 300.5,150.5C 293.438,152.016 286.438,153.682 279.5,155.5C 279.5,149.5 279.5,143.5 279.5,137.5C 284.31,136.905 288.976,135.738 293.5,134C 288.429,132.035 283.429,130.202 278.5,128.5C 279.489,123.025 279.822,117.358 279.5,111.5 Z"/></g>
<g><path style="opacity:0.973" fill="#9951fa" d="M 138.5,109.5 C 137.548,115.075 137.214,120.741 137.5,126.5C 128.639,128.286 119.973,130.786 111.5,134C 120.089,136.481 128.756,138.647 137.5,140.5C 137.831,164.339 137.498,188.006 136.5,211.5C 134.983,211.489 133.816,210.823 133,209.5C 130.823,205.969 129.656,202.136 129.5,198C 130.97,184.196 131.97,170.363 132.5,156.5C 122.778,154.655 113.111,152.488 103.5,150C 100.826,149.33 98.4927,148.163 96.5,146.5C 97.4927,138.35 97.8261,130.017 97.5,121.5C 110.385,115.191 124.051,111.191 138.5,109.5 Z"/></g>
<g><path style="opacity:0.965" fill="#9f4cfc" d="M 97.5,121.5 C 97.8261,130.017 97.4927,138.35 96.5,146.5C 95.1733,145.2 93.84,143.867 92.5,142.5C 78.041,150.955 65.041,161.288 53.5,173.5C 52.508,166.018 52.1746,158.352 52.5,150.5C 65.6545,138.082 80.6545,128.415 97.5,121.5 Z"/></g>
<g><path style="opacity:0.964" fill="#6b78ed" d="M 301.5,118.5 C 311.258,121.877 320.258,126.544 328.5,132.5C 328.823,139.022 328.49,145.355 327.5,151.5C 322.39,148.774 317.39,145.774 312.5,142.5C 309.507,146.664 305.507,149.331 300.5,150.5C 300.191,139.752 300.524,129.085 301.5,118.5 Z"/></g>
<g><path style="opacity:0.963" fill="#7a6cf1" d="M 279.5,137.5 C 279.5,143.5 279.5,149.5 279.5,155.5C 277.194,155.993 274.861,156.326 272.5,156.5C 273.223,170.182 274.223,183.849 275.5,197.5C 274.676,211.43 267.343,216.93 253.5,214C 247.679,210.337 242.012,206.503 236.5,202.5C 236.176,195.646 236.509,188.979 237.5,182.5C 244.453,186.946 251.286,191.612 258,196.5C 256.564,181.243 255.897,165.91 256,150.5C 257.061,147.438 258.894,144.938 261.5,143C 267.431,140.852 273.431,139.019 279.5,137.5 Z"/></g>
<g><path style="opacity:0.972" fill="#9456f8" d="M 137.5,140.5 C 143.017,141.847 146.85,145.18 149,150.5C 149.214,165.916 148.547,181.249 147,196.5C 156.804,189.69 166.638,183.023 176.5,176.5C 176.5,183.167 176.5,189.833 176.5,196.5C 168.583,202.804 160.25,208.637 151.5,214C 147.5,214.667 143.5,214.667 139.5,214C 138.058,213.623 137.058,212.79 136.5,211.5C 137.498,188.006 137.831,164.339 137.5,140.5 Z"/></g>
<g><path style="opacity:0.978" fill="#6083ea" d="M 328.5,132.5 C 336.301,136.909 343.634,142.076 350.5,148C 355.434,152.426 359.767,157.26 363.5,162.5C 363.5,175.5 363.5,188.5 363.5,201.5C 356.864,202.898 350.198,204.565 343.5,206.5C 343.789,200.409 343.455,194.409 342.5,188.5C 348.448,187.144 354.448,185.977 360.5,185C 350.636,172.637 339.636,161.47 327.5,151.5C 328.49,145.355 328.823,139.022 328.5,132.5 Z"/></g>
<g><path style="opacity:0.959" fill="#a448fd" d="M 52.5,150.5 C 52.1746,158.352 52.508,166.018 53.5,173.5C 16.0998,220.351 6.93318,272.351 26,329.5C 32.6551,346.164 41.8217,361.164 53.5,374.5C 52.8333,381.833 52.1667,389.167 51.5,396.5C 21.6921,368.552 4.35879,334.218 -0.5,293.5C -0.5,281.167 -0.5,268.833 -0.5,256.5C 4.93722,214.959 22.6039,179.626 52.5,150.5 Z"/></g>
<g><path style="opacity:0.978" fill="#5b88e8" d="M 363.5,162.5 C 369.856,168.194 375.022,174.86 379,182.5C 379.816,183.823 380.983,184.489 382.5,184.5C 382.5,190.167 382.5,195.833 382.5,201.5C 376.238,201.099 369.904,201.099 363.5,201.5C 363.5,188.5 363.5,175.5 363.5,162.5 Z"/></g>
<g><path style="opacity:0.97" fill="#8c5cf7" d="M 201.5,161.5 C 201.5,167.5 201.5,173.5 201.5,179.5C 193.34,185.414 185.007,191.081 176.5,196.5C 176.5,189.833 176.5,183.167 176.5,176.5C 181.315,172.53 186.315,168.697 191.5,165C 194.561,162.965 197.895,161.799 201.5,161.5 Z"/></g>
<g><path style="opacity:0.974" fill="#8564f4" d="M 201.5,161.5 C 204.607,161.351 207.607,161.851 210.5,163C 219.681,169.363 228.681,175.863 237.5,182.5C 236.509,188.979 236.176,195.646 236.5,202.5C 225.274,194.632 214.108,186.632 203,178.5C 202.617,179.056 202.117,179.389 201.5,179.5C 201.5,173.5 201.5,167.5 201.5,161.5 Z"/></g>
<g><path style="opacity:0.957" fill="#548de6" d="M 382.5,184.5 C 389.599,184.341 396.599,185.008 403.5,186.5C 402.167,192.167 402.167,197.833 403.5,203.5C 396.576,202.113 389.576,201.446 382.5,201.5C 382.5,195.833 382.5,190.167 382.5,184.5 Z"/></g>
<g><path style="opacity:0.959" fill="#4e93e4" d="M 403.5,186.5 C 409.821,187.39 415.821,189.057 421.5,191.5C 421.5,197.5 421.5,203.5 421.5,209.5C 415.699,206.9 409.699,204.9 403.5,203.5C 402.167,197.833 402.167,192.167 403.5,186.5 Z"/></g>
<g><path style="opacity:0.962" fill="#479ae2" d="M 421.5,191.5 C 430.276,193.64 438.276,197.306 445.5,202.5C 444.51,208.645 444.177,214.978 444.5,221.5C 437.279,216.722 429.612,212.722 421.5,209.5C 421.5,203.5 421.5,197.5 421.5,191.5 Z"/></g>
<g><path style="opacity:0.979" fill="#6a7aec" d="M 342.5,188.5 C 343.455,194.409 343.789,200.409 343.5,206.5C 329.659,211.086 316.992,217.752 305.5,226.5C 305.205,219.412 305.538,212.412 306.5,205.5C 317.502,197.933 329.502,192.266 342.5,188.5 Z"/></g>
<g><path style="opacity:0.966" fill="#7272ef" d="M 306.5,205.5 C 305.538,212.412 305.205,219.412 305.5,226.5C 295.38,234.949 286.713,244.615 279.5,255.5C 279.5,246.5 279.5,237.5 279.5,228.5C 287.025,218.965 296.025,211.298 306.5,205.5 Z"/></g>
<g><path style="opacity:0.954" fill="#3ca3df" d="M 445.5,202.5 C 454.582,207.043 462.582,213.043 469.5,220.5C 469.5,228.5 469.5,236.5 469.5,244.5C 462.093,235.757 453.76,228.09 444.5,221.5C 444.177,214.978 444.51,208.645 445.5,202.5 Z"/></g>
<g><path style="opacity:0.962" fill="#558de6" d="M 384.5,214.5 C 389.147,215.239 393.814,215.906 398.5,216.5C 398.5,222.167 398.5,227.833 398.5,233.5C 393.153,232.927 387.82,232.26 382.5,231.5C 381.955,225.537 382.621,219.87 384.5,214.5 Z"/></g>
<g><path style="opacity:0.979" fill="#5a88e7" d="M 384.5,214.5 C 382.621,219.87 381.955,225.537 382.5,231.5C 376.149,231.557 369.815,231.89 363.5,232.5C 363.786,226.741 363.452,221.075 362.5,215.5C 369.817,214.882 377.151,214.549 384.5,214.5 Z"/></g>
<g><path style="opacity:0.955" fill="#4e93e4" d="M 398.5,216.5 C 406.67,218 414.337,220.667 421.5,224.5C 421.5,230.833 421.5,237.167 421.5,243.5C 414.14,239.317 406.473,235.983 398.5,233.5C 398.5,227.833 398.5,222.167 398.5,216.5 Z"/></g>
<g><path style="opacity:0.968" fill="#6480ea" d="M 362.5,215.5 C 363.452,221.075 363.786,226.741 363.5,232.5C 351.524,235.484 340.191,240.151 329.5,246.5C 328.833,240.5 328.167,234.5 327.5,228.5C 338.296,222.01 349.963,217.677 362.5,215.5 Z"/></g>
<g><path style="opacity:0.959" fill="#4799e2" d="M 421.5,224.5 C 427.998,226.577 433.665,229.91 438.5,234.5C 437.833,240.833 437.167,247.167 436.5,253.5C 431.518,250.193 426.518,246.859 421.5,243.5C 421.5,237.167 421.5,230.833 421.5,224.5 Z"/></g>
<g><path style="opacity:0.968" fill="#34a9dc" d="M 469.5,220.5 C 477.299,226.628 483.633,233.961 488.5,242.5C 488.828,254.012 488.495,265.346 487.5,276.5C 483.034,264.894 477.034,254.227 469.5,244.5C 469.5,236.5 469.5,228.5 469.5,220.5 Z"/></g>
<g><path style="opacity:0.963" fill="#7a6cf1" d="M 279.5,228.5 C 279.5,237.5 279.5,246.5 279.5,255.5C 256.834,296.821 256.834,338.154 279.5,379.5C 279.826,388.349 279.493,397.016 278.5,405.5C 251.093,373.572 240.593,336.572 247,294.5C 251.227,269.047 262.061,247.047 279.5,228.5 Z"/></g>
<g><path style="opacity:0.962" fill="#419fe0" d="M 438.5,234.5 C 444.391,237.719 449.391,242.052 453.5,247.5C 453.827,256.682 453.493,265.682 452.5,274.5C 447.934,266.931 442.601,259.931 436.5,253.5C 437.167,247.167 437.833,240.833 438.5,234.5 Z"/></g>
<g><path style="opacity:0.978" fill="#6d77ed" d="M 327.5,228.5 C 328.167,234.5 328.833,240.5 329.5,246.5C 318.033,255.638 308.7,266.638 301.5,279.5C 300.833,270.5 300.167,261.5 299.5,252.5C 306.85,242.162 316.184,234.162 327.5,228.5 Z"/></g>
<g><path style="opacity:0.971" fill="#7371ef" d="M 299.5,252.5 C 300.167,261.5 300.833,270.5 301.5,279.5C 289.894,304.329 289.561,329.329 300.5,354.5C 300.827,364.015 300.494,373.348 299.5,382.5C 283.637,363.929 275.637,342.262 275.5,317.5C 275.637,292.738 283.637,271.071 299.5,252.5 Z"/></g>
<g><path style="opacity:0.965" fill="#39a5de" d="M 453.5,247.5 C 476.08,272.116 484.913,301.116 480,334.5C 477.022,352.782 469.522,368.782 457.5,382.5C 457.827,372.985 457.494,363.652 456.5,354.5C 468.205,327.117 466.871,300.45 452.5,274.5C 453.493,265.682 453.827,256.682 453.5,247.5 Z"/></g>
<g><path style="opacity:0.982" fill="#30addb" d="M 488.5,242.5 C 491.137,245.989 493.637,249.655 496,253.5C 497.741,256.309 498.908,259.309 499.5,262.5C 498.167,299.833 498.167,337.167 499.5,374.5C 493.635,386.247 486.302,396.914 477.5,406.5C 476.833,398.5 476.167,390.5 475.5,382.5C 496.239,349.127 500.239,313.793 487.5,276.5C 488.495,265.346 488.828,254.012 488.5,242.5 Z"/></g>
<g><path style="opacity:0.996" fill="#568be6" d="M 402.5,309.5 C 402.5,314.833 402.5,320.167 402.5,325.5C 393.161,325.666 383.827,325.5 374.5,325C 372.667,324.5 371.5,323.333 371,321.5C 370.333,300.833 370.333,280.167 371,259.5C 376,254.167 381,254.167 386,259.5C 386.5,276.163 386.667,292.83 386.5,309.5C 391.833,309.5 397.167,309.5 402.5,309.5 Z"/></g>
<g><path style="opacity:0.99" fill="#2cb1d9" d="M 499.5,262.5 C 502.166,267.177 504.333,272.177 506,277.5C 508.174,285.558 510.008,293.558 511.5,301.5C 511.5,312.167 511.5,322.833 511.5,333.5C 509.229,347.568 505.229,361.235 499.5,374.5C 498.167,337.167 498.167,299.833 499.5,262.5 Z"/></g>
<g><path style="opacity:0.999" fill="#4d94e4" d="M 402.5,309.5 C 408.842,309.334 415.175,309.5 421.5,310C 426.833,315 426.833,320 421.5,325C 415.175,325.5 408.842,325.666 402.5,325.5C 402.5,320.167 402.5,314.833 402.5,309.5 Z"/></g>
<g><path style="opacity:0.97" fill="#409fe0" d="M 456.5,354.5 C 457.494,363.652 457.827,372.985 457.5,382.5C 452.143,390.189 445.477,396.523 437.5,401.5C 437.436,394.808 437.436,387.808 437.5,380.5C 444.638,372.371 450.972,363.704 456.5,354.5 Z"/></g>
<g><path style="opacity:0.98" fill="#6c77ed" d="M 300.5,354.5 C 307.67,367.337 317.004,378.337 328.5,387.5C 328.5,394.167 328.5,400.833 328.5,407.5C 317.002,401.257 307.335,392.924 299.5,382.5C 300.494,373.348 300.827,364.015 300.5,354.5 Z"/></g>
<g><path style="opacity:0.965" fill="#a04cfc" d="M 53.5,374.5 C 66.2831,388.23 80.9498,399.564 97.5,408.5C 97.5,414.833 97.5,421.167 97.5,427.5C 80.5233,419.509 65.1899,409.176 51.5,396.5C 52.1667,389.167 52.8333,381.833 53.5,374.5 Z"/></g>
<g><path style="opacity:0.968" fill="#4799e2" d="M 437.5,380.5 C 437.436,387.808 437.436,394.808 437.5,401.5C 433.033,405.24 428.033,408.24 422.5,410.5C 421.542,404.256 421.209,397.923 421.5,391.5C 426.862,387.823 432.196,384.157 437.5,380.5 Z"/></g>
<g><path style="opacity:0.967" fill="#7371ef" d="M 279.5,379.5 C 286.094,388.101 293.094,396.435 300.5,404.5C 300.5,413.167 300.5,421.833 300.5,430.5C 293.888,433.964 286.888,436.631 279.5,438.5C 279.786,432.741 279.452,427.075 278.5,421.5C 282.098,419.91 285.764,418.41 289.5,417C 285.63,413.298 281.963,409.464 278.5,405.5C 279.493,397.016 279.826,388.349 279.5,379.5 Z"/></g>
<g><path style="opacity:0.966" fill="#657eeb" d="M 328.5,387.5 C 333.368,390.434 338.368,393.1 343.5,395.5C 343.823,401.69 343.49,407.69 342.5,413.5C 337.597,412.048 332.93,410.048 328.5,407.5C 328.5,400.833 328.5,394.167 328.5,387.5 Z"/></g>
<g><path style="opacity:0.953" fill="#3aa4de" d="M 475.5,382.5 C 476.167,390.5 476.833,398.5 477.5,406.5C 470.71,414.962 462.71,421.962 453.5,427.5C 453.5,420.5 453.5,413.5 453.5,406.5C 461.756,399.3 469.09,391.3 475.5,382.5 Z"/></g>
<g><path style="opacity:0.962" fill="#4e93e4" d="M 421.5,391.5 C 421.209,397.923 421.542,404.256 422.5,410.5C 416.128,413.624 409.462,415.957 402.5,417.5C 402.822,411.642 402.489,405.975 401.5,400.5C 408.36,398.073 415.027,395.073 421.5,391.5 Z"/></g>
<g><path style="opacity:0.964" fill="#548de6" d="M 401.5,400.5 C 402.489,405.975 402.822,411.642 402.5,417.5C 395.912,418.936 389.245,419.936 382.5,420.5C 382.5,414.833 382.5,409.167 382.5,403.5C 388.873,402.745 395.206,401.745 401.5,400.5 Z"/></g>
<g><path style="opacity:0.973" fill="#5c87e8" d="M 343.5,395.5 C 355.818,401.23 368.818,403.897 382.5,403.5C 382.5,409.167 382.5,414.833 382.5,420.5C 368.556,420.921 355.223,418.588 342.5,413.5C 343.49,407.69 343.823,401.69 343.5,395.5 Z"/></g>
<g><path style="opacity:0.966" fill="#6d77ed" d="M 300.5,404.5 C 307.362,409.758 314.362,414.758 321.5,419.5C 320.795,425.399 320.128,431.399 319.5,437.5C 315.194,435.012 310.861,432.512 306.5,430C 304.455,429.51 302.455,429.677 300.5,430.5C 300.5,421.833 300.5,413.167 300.5,404.5 Z"/></g>
<g><path style="opacity:0.965" fill="#429fe1" d="M 453.5,406.5 C 453.5,413.5 453.5,420.5 453.5,427.5C 449.005,431.251 444.005,434.251 438.5,436.5C 438.146,430.594 437.146,424.927 435.5,419.5C 441.477,415.199 447.477,410.865 453.5,406.5 Z"/></g>
<g><path style="opacity:0.965" fill="#9952fa" d="M 97.5,408.5 C 110.683,415.555 124.35,421.221 138.5,425.5C 137.511,430.975 137.178,436.642 137.5,442.5C 123.482,439.053 110.149,434.053 97.5,427.5C 97.5,421.167 97.5,414.833 97.5,408.5 Z"/></g>
<g><path style="opacity:0.968" fill="#4899e2" d="M 435.5,419.5 C 437.146,424.927 438.146,430.594 438.5,436.5C 434.134,439.012 429.467,441.012 424.5,442.5C 423.5,442.5 422.5,442.5 421.5,442.5C 421.214,436.741 421.548,431.075 422.5,425.5C 426.709,423.229 431.042,421.229 435.5,419.5 Z"/></g>
<g><path style="opacity:0.963" fill="#667eeb" d="M 321.5,419.5 C 328.61,423.055 335.944,426.055 343.5,428.5C 343.822,434.358 343.489,440.025 342.5,445.5C 334.536,443.685 326.87,441.018 319.5,437.5C 320.128,431.399 320.795,425.399 321.5,419.5 Z"/></g>
<g><path style="opacity:0.961" fill="#4e94e4" d="M 422.5,425.5 C 421.548,431.075 421.214,436.741 421.5,442.5C 422.5,442.5 423.5,442.5 424.5,442.5C 417.536,445.482 410.203,447.482 402.5,448.5C 402.214,442.741 402.548,437.075 403.5,431.5C 409.818,429.506 416.151,427.506 422.5,425.5 Z"/></g>
<g><path style="opacity:0.971" fill="#7c6af2" d="M 278.5,421.5 C 279.452,427.075 279.786,432.741 279.5,438.5C 265.677,443.537 251.344,446.871 236.5,448.5C 236.5,442.833 236.5,437.167 236.5,431.5C 250.782,429.311 264.782,425.977 278.5,421.5 Z"/></g>
<g><path style="opacity:0.965" fill="#9059f8" d="M 138.5,425.5 C 161.099,431.53 184.099,434.196 207.5,433.5C 205.735,434.461 203.735,434.795 201.5,434.5C 201.5,439.833 201.5,445.167 201.5,450.5C 179.781,450.785 158.447,448.118 137.5,442.5C 137.178,436.642 137.511,430.975 138.5,425.5 Z"/></g>
<g><path style="opacity:0.955" fill="#548de6" d="M 403.5,431.5 C 402.548,437.075 402.214,442.741 402.5,448.5C 395.968,450.045 389.301,450.712 382.5,450.5C 382.5,444.833 382.5,439.167 382.5,433.5C 389.576,433.554 396.576,432.887 403.5,431.5 Z"/></g>
<g><path style="opacity:0.962" fill="#8562f5" d="M 236.5,431.5 C 236.5,437.167 236.5,442.833 236.5,448.5C 224.907,450.149 213.24,450.816 201.5,450.5C 201.5,445.167 201.5,439.833 201.5,434.5C 203.735,434.795 205.735,434.461 207.5,433.5C 217.23,433.621 226.896,432.954 236.5,431.5 Z"/></g>
<g><path style="opacity:0.969" fill="#5c86e8" d="M 343.5,428.5 C 356.156,432.664 369.156,434.331 382.5,433.5C 382.5,439.167 382.5,444.833 382.5,450.5C 368.699,451.431 355.365,449.764 342.5,445.5C 343.489,440.025 343.822,434.358 343.5,428.5 Z"/></g>
</svg>
